<svg width="64" height="64" viewBox="0 0 64 64" fill="none" xmlns="http://www.w3.org/2000/svg">
<g clip-path="url(#clip0_972_482)">
<path d="M64 32C64.0057 36.3318 63.1289 40.6194 61.423 44.6012L61.3169 44.8454C58.4313 51.4101 53.4277 56.8175 47.1063 60.203C40.7849 63.5884 33.5108 64.7564 26.4473 63.52C26.2551 63.4859 26.0633 63.4506 25.8717 63.414C23.8924 63.0303 21.9541 62.4587 20.0833 61.707C19.7794 61.5849 19.4777 61.4583 19.1782 61.3273C18.9737 61.2383 18.7692 61.1465 18.5666 61.0518C13.0243 58.4831 8.33185 54.3836 5.0423 49.2363C1.75276 44.089 0.00325364 38.1086 0 32C0 14.3271 14.3271 0 32 0C49.6729 0 64 14.3271 64 32Z" fill="#6C63FF"/>
<path opacity="0.2" d="M26.4472 63.52C26.2551 63.4859 26.0632 63.4506 25.8716 63.414C25.7467 59.787 25.3178 52.3427 23.8551 44.5463C23.0551 40.2793 21.9445 35.9053 20.4042 31.9953C19.8765 30.6423 19.2737 29.3199 18.5987 28.0341C17.0423 25.0944 15.1545 22.6197 12.8652 20.943L13.2023 20.4828C15.1062 21.8784 16.8173 23.8375 18.3355 26.3602C18.7909 27.1157 19.2283 27.9217 19.6477 28.7782C20.0974 29.6947 20.5263 30.6676 20.9344 31.697C21.1947 32.3522 21.4462 33.0301 21.6889 33.7307C22.7455 36.7726 23.6436 40.2433 24.3833 44.143C24.5471 45.0045 24.703 45.8872 24.851 46.791C25.9975 53.7941 26.3431 60.2689 26.4472 63.52Z" fill="black"/>
<path opacity="0.2" d="M19.1783 61.3273C18.9738 61.2383 18.7693 61.1465 18.5667 61.0518C18.3689 58.9027 18.0053 56.2367 17.3407 53.706C17.0496 52.5694 16.6759 51.4556 16.2226 50.3735C15.4643 48.5983 14.4825 47.0892 13.2129 46.1586L13.5499 45.6994C14.8792 46.6727 15.9045 48.2111 16.6969 50.0109C17.5897 52.0388 18.1852 54.399 18.5819 56.6542C18.8763 58.329 19.0619 59.947 19.1783 61.3273Z" fill="black"/>
<path opacity="0.2" d="M9.68163 20.9297C11.2549 20.9297 12.5303 19.6544 12.5303 18.0811C12.5303 16.5079 11.2549 15.2325 9.68163 15.2325C8.10838 15.2325 6.83301 16.5079 6.83301 18.0811C6.83301 19.6544 8.10838 20.9297 9.68163 20.9297Z" fill="black"/>
<path opacity="0.2" d="M10.5989 45.4513C12.1721 45.4513 13.4475 44.1759 13.4475 42.6027C13.4475 41.0294 12.1721 39.7541 10.5989 39.7541C9.02562 39.7541 7.75024 41.0294 7.75024 42.6027C7.75024 44.1759 9.02562 45.4513 10.5989 45.4513Z" fill="black"/>
<path opacity="0.2" d="M20.9908 22.8659C20.3867 26.274 21.7202 29.3599 21.7202 29.3599C21.7202 29.3599 24.0331 26.9203 24.6371 23.5123C25.2412 20.1042 23.9077 17.0183 23.9077 17.0183C23.9077 17.0183 21.5948 19.4579 20.9908 22.8659Z" fill="black"/>
<path opacity="0.2" d="M11.5236 30.9558C14.7742 32.1445 18.0407 31.3817 18.0407 31.3817C18.0407 31.3817 16.0368 28.6917 12.7861 27.5031C9.53549 26.3144 6.26904 27.0772 6.26904 27.0772C6.26904 27.0772 8.27293 29.7672 11.5236 30.9558Z" fill="black"/>
<path opacity="0.2" d="M10.9723 52.6706C13.2507 53.5037 15.5434 52.9602 15.5434 52.9602C15.5434 52.9602 14.1421 51.066 11.8637 50.2328C9.58523 49.3997 7.29248 49.9432 7.29248 49.9432C7.29248 49.9432 8.69382 51.8374 10.9723 52.6706Z" fill="black"/>
<path d="M31.9343 39.0863C38.8242 39.0863 44.4095 33.5009 44.4095 26.611C44.4095 19.7211 38.8242 14.1357 31.9343 14.1357C25.0444 14.1357 19.459 19.7211 19.459 26.611C19.459 33.5009 25.0444 39.0863 31.9343 39.0863Z" fill="#D0CDE1"/>
<path d="M27.061 36.1624C27.061 36.1624 28.6204 43.5696 28.6204 44.3493C28.6204 45.129 36.0276 48.6377 36.0276 48.6377L42.6551 47.4681L44.9943 40.4508C44.9943 40.4508 41.0957 34.603 41.0957 32.2639L27.061 36.1624Z" fill="#D0CDE1"/>
<path d="M61.4229 44.6012L61.3168 44.8454C58.4312 51.4101 53.4276 56.8175 47.1062 60.203C40.7848 63.5884 33.5107 64.7563 26.4472 63.52C26.255 63.4859 26.0632 63.4506 25.8716 63.4139C23.8923 63.0302 21.954 62.4587 20.0832 61.707C19.7793 61.5848 19.4776 61.4583 19.1781 61.3273C18.9736 61.2383 18.7691 61.1465 18.5665 61.0518C16.7301 60.201 14.9786 59.1777 13.3357 57.9957L11.8569 53.706L12.6882 53.0717L14.398 51.7661L16.2224 50.3735L16.6967 50.0109L23.855 44.5463L24.3833 44.1429L28.104 41.3027L28.105 41.3018C28.105 41.3018 32.1287 47.858 37.9767 45.9086C43.8247 43.9593 43.6969 38.3697 43.6969 38.3697L61.4229 44.6012Z" fill="#2F2E41"/>
<path d="M21.1159 16.5601C21.1159 16.5601 25.0767 7.97824 32.6684 9.95867C40.26 11.9391 44.5509 14.9097 44.881 17.8804C45.2111 20.851 44.716 25.307 44.716 25.307C44.716 25.307 43.8908 19.2007 38.6097 20.5209C33.3285 21.8412 25.0767 20.851 25.0767 20.851L23.7565 32.7336C23.7565 32.7336 22.2711 30.5881 20.6208 31.9084C18.9704 33.2287 15.8347 19.2007 21.1159 16.5601Z" fill="#2F2E41"/>
<path d="M20.0834 61.707C19.7795 61.5848 19.4778 61.4583 19.1783 61.3273C18.9738 61.2383 18.7693 61.1465 18.5667 61.0518C15.5295 59.6434 12.7314 57.7683 10.2742 55.4944C11.1442 54.3091 11.8571 53.706 11.8571 53.706H17.7052L18.5819 56.6542L20.0834 61.707Z" fill="#2F2E41"/>
<path d="M56.3 43.9593L61.3168 44.8454C59.9743 47.9039 58.1611 50.7333 55.9431 53.2308L56.3 43.9593Z" fill="#2F2E41"/>
</g>
<defs>
<clipPath id="clip0_972_482">
<rect width="64" height="64" fill="white"/>
</clipPath>
</defs>
</svg>
