<svg width="121" height="21" viewBox="0 0 121 21" fill="none" xmlns="http://www.w3.org/2000/svg">
<path d="M5.6 20.288C4.384 20.288 3.368 20.072 2.552 19.64C1.736 19.208 1.12 18.544 0.704 17.648C0.288 16.736 0.0560001 15.56 0.00800008 14.12L3.68 13.568C3.696 14.4 3.768 15.072 3.896 15.584C4.04 16.096 4.232 16.464 4.472 16.688C4.728 16.912 5.032 17.024 5.384 17.024C5.832 17.024 6.12 16.872 6.248 16.568C6.392 16.264 6.464 15.944 6.464 15.608C6.464 14.808 6.272 14.136 5.888 13.592C5.504 13.032 4.984 12.472 4.328 11.912L2.648 10.448C1.912 9.824 1.288 9.12 0.776 8.336C0.28 7.536 0.032 6.552 0.032 5.384C0.032 3.736 0.52 2.48 1.496 1.616C2.472 0.735999 3.8 0.295999 5.48 0.295999C6.52 0.295999 7.352 0.471999 7.976 0.823999C8.616 1.176 9.096 1.64 9.416 2.216C9.752 2.776 9.976 3.376 10.088 4.016C10.216 4.64 10.288 5.24 10.304 5.816L6.608 6.272C6.592 5.696 6.552 5.2 6.488 4.784C6.44 4.352 6.328 4.024 6.152 3.8C5.976 3.56 5.704 3.44 5.336 3.44C4.936 3.44 4.64 3.608 4.448 3.944C4.272 4.28 4.184 4.616 4.184 4.952C4.184 5.672 4.352 6.264 4.688 6.728C5.04 7.176 5.496 7.648 6.056 8.144L7.664 9.56C8.512 10.28 9.224 11.096 9.8 12.008C10.392 12.92 10.688 14.048 10.688 15.392C10.688 16.304 10.48 17.136 10.064 17.888C9.648 18.624 9.056 19.208 8.288 19.64C7.536 20.072 6.64 20.288 5.6 20.288ZM12.7681 20V0.559999H17.0641V8.504L20.3281 0.559999H24.5281L20.9281 9.344L24.6961 20H20.3281L17.5201 11.408L17.0641 12.176V20H12.7681ZM26.4093 20V0.559999H30.7053V20H26.4093ZM33.6041 20V0.559999H37.9001V17.096H42.3641V20H33.6041ZM44.2447 20V0.559999H48.5407V17.096H53.0047V20H44.2447ZM59.8578 20.288C58.6418 20.288 57.6258 20.072 56.8098 19.64C55.9938 19.208 55.3778 18.544 54.9618 17.648C54.5458 16.736 54.3138 15.56 54.2658 14.12L57.9378 13.568C57.9538 14.4 58.0258 15.072 58.1538 15.584C58.2978 16.096 58.4898 16.464 58.7298 16.688C58.9858 16.912 59.2898 17.024 59.6418 17.024C60.0898 17.024 60.3778 16.872 60.5058 16.568C60.6498 16.264 60.7218 15.944 60.7218 15.608C60.7218 14.808 60.5298 14.136 60.1458 13.592C59.7618 13.032 59.2418 12.472 58.5858 11.912L56.9058 10.448C56.1698 9.824 55.5458 9.12 55.0338 8.336C54.5378 7.536 54.2898 6.552 54.2898 5.384C54.2898 3.736 54.7778 2.48 55.7538 1.616C56.7298 0.735999 58.0578 0.295999 59.7378 0.295999C60.7778 0.295999 61.6098 0.471999 62.2338 0.823999C62.8738 1.176 63.3538 1.64 63.6738 2.216C64.0098 2.776 64.2338 3.376 64.3458 4.016C64.4738 4.64 64.5458 5.24 64.5618 5.816L60.8658 6.272C60.8498 5.696 60.8098 5.2 60.7458 4.784C60.6978 4.352 60.5858 4.024 60.4098 3.8C60.2338 3.56 59.9618 3.44 59.5938 3.44C59.1938 3.44 58.8978 3.608 58.7058 3.944C58.5298 4.28 58.4418 4.616 58.4418 4.952C58.4418 5.672 58.6098 6.264 58.9458 6.728C59.2978 7.176 59.7538 7.648 60.3138 8.144L61.9218 9.56C62.7698 10.28 63.4818 11.096 64.0578 12.008C64.6498 12.92 64.9458 14.048 64.9458 15.392C64.9458 16.304 64.7378 17.136 64.3218 17.888C63.9058 18.624 63.3138 19.208 62.5458 19.64C61.7938 20.072 60.8978 20.288 59.8578 20.288ZM68.7779 20V3.752H65.8499V0.559999H76.0019V3.752H73.0979V20H68.7779ZM83.0939 20.288C81.6379 20.288 80.4859 20.032 79.6379 19.52C78.7899 19.008 78.1819 18.272 77.8139 17.312C77.4459 16.352 77.2619 15.208 77.2619 13.88V6.656C77.2619 5.312 77.4459 4.168 77.8139 3.224C78.1819 2.28 78.7899 1.56 79.6379 1.064C80.4859 0.551999 81.6379 0.295999 83.0939 0.295999C84.5659 0.295999 85.7259 0.551999 86.5739 1.064C87.4379 1.56 88.0539 2.28 88.4219 3.224C88.7899 4.168 88.9739 5.312 88.9739 6.656V13.88C88.9739 15.208 88.7899 16.352 88.4219 17.312C88.0539 18.272 87.4379 19.008 86.5739 19.52C85.7259 20.032 84.5659 20.288 83.0939 20.288ZM83.0939 17.24C83.5419 17.24 83.8699 17.128 84.0779 16.904C84.2859 16.68 84.4219 16.392 84.4859 16.04C84.5499 15.688 84.5819 15.328 84.5819 14.96V5.6C84.5819 5.216 84.5499 4.856 84.4859 4.52C84.4219 4.168 84.2859 3.88 84.0779 3.656C83.8699 3.432 83.5419 3.32 83.0939 3.32C82.6779 3.32 82.3659 3.432 82.1579 3.656C81.9499 3.88 81.8139 4.168 81.7499 4.52C81.6859 4.856 81.6539 5.216 81.6539 5.6V14.96C81.6539 15.328 81.6779 15.688 81.7259 16.04C81.7899 16.392 81.9179 16.68 82.1099 16.904C82.3179 17.128 82.6459 17.24 83.0939 17.24ZM91.5884 20V0.559999H96.9404C98.2524 0.559999 99.3884 0.703999 100.348 0.991999C101.308 1.28 102.052 1.8 102.58 2.552C103.124 3.288 103.396 4.336 103.396 5.696C103.396 6.496 103.332 7.208 103.204 7.832C103.076 8.456 102.836 9 102.484 9.464C102.148 9.912 101.66 10.288 101.02 10.592L103.684 20H99.2444L97.1084 11.288H95.8844V20H91.5884ZM95.8844 8.816H97.0844C97.6924 8.816 98.1644 8.712 98.5004 8.504C98.8364 8.28 99.0684 7.968 99.1964 7.568C99.3404 7.152 99.4124 6.656 99.4124 6.08C99.4124 5.248 99.2604 4.6 98.9564 4.136C98.6524 3.672 98.0924 3.44 97.2764 3.44H95.8844V8.816ZM105.907 20L106.243 0.559999H110.851L112.987 11.864L115.291 0.559999H119.731L120.067 20H117.019L116.659 7.064L114.403 20H111.691L109.291 6.968L109.003 20H105.907Z" fill="#212353"/>
</svg>
