<svg width="32" height="32" viewBox="0 0 32 32" fill="none" xmlns="http://www.w3.org/2000/svg"><path d="M25.967 18.36V1.575c0-.87-.704-1.574-1.573-1.574H7.607c-.87 0-1.574.705-1.574 1.574V18.36c0 .869.704 1.573 1.574 1.573v8.918a1.574 1.574 0 1 0 0 3.148h16.787a1.574 1.574 0 1 0 0-3.148v-8.918c.869 0 1.573-.704 1.573-1.573zm-1.049 12.066c0 .29-.235.525-.524.525H7.607a.525.525 0 0 1 0-1.05h16.787c.29 0 .524.236.524.525zm-10.51-2.269a6.82 6.82 0 0 0 8.223-8.223h.713v8.918H8.656v-8.918h.713a6.82 6.82 0 0 0 5.04 8.223zm-4.178-6.649a5.7 5.7 0 0 1 .223-1.574h11.095a5.7 5.7 0 0 1 .223 1.574 5.77 5.77 0 0 1-11.541 0zm-2.623-2.623a.525.525 0 0 1-.525-.524V1.574c0-.29.235-.525.525-.525h2.623v4.197a.525.525 0 0 0 1.049 0V1.049h4.197v4.197a.525.525 0 0 0 1.049 0V1.049h4.196v4.197a.525.525 0 0 0 1.05 0V1.049h2.622c.29 0 .525.235.525.525V18.36c0 .29-.235.524-.524.524H7.607z" fill="#6c63ff"/><path d="M16 22.557a1.05 1.05 0 1 0 0-2.098 1.05 1.05 0 0 0 0 2.098zM8.131 18.36a.525.525 0 1 0 0-1.05.525.525 0 0 0 0 1.05zm15.738 0a.525.525 0 1 0 0-1.05.525.525 0 0 0 0 1.05zM8.131 2.623a.525.525 0 1 0 0-1.049.525.525 0 0 0 0 1.05zm15.738 0a.525.525 0 1 0 0-1.049.525.525 0 0 0 0 1.05z" fill="#6c63ff"/></svg>