<svg width="24" height="24" viewBox="0 0 24 24" fill="none" xmlns="http://www.w3.org/2000/svg">
    <g clip-path="url(#a)" fill="#6c63ff"><path d="M21.375 22.16a.352.352 0 0 0-.352.352v.785H2.977V2.994a.352.352 0 0 0-.704 0v20.654c0 .195.158.352.352.352h18.75a.352.352 0 0 0 .352-.352v-1.136a.352.352 0 0 0-.352-.352zM21.375 0H2.625a.352.352 0 0 0-.352.352v1.13a.352.352 0 0 0 .704 0V.703h18.046v20.291a.352.352 0 1 0 .704 0V.352A.352.352 0 0 0 21.375 0z"/>
    <path d="M20.322 17.373a.724.724 0 0 0-.45-.67.724.724 0 0 0-.791.158l-.814.816-.354-.551 2.29-2.29a.352.352 0 0 0 .104-.249l.013-12.814c.002-.015 0 0 0-.015v-.01l-.001-.025-.004-.024c0-.004 0-.007-.002-.01a.308.308 0 0 0-.007-.029v-.004a.343.343 0 0 0-.011-.029l-.002-.004a.339.339 0 0 0-.012-.026l-.002-.005a.303.303 0 0 0-.014-.023l-.004-.006a.34.34 0 0 0-.015-.021l-.005-.007a.347.347 0 0 0-.022-.024l-.002-.001a.34.34 0 0 0-.025-.024l-.006-.004a.323.323 0 0 0-.022-.016l-.005-.003a.37.37 0 0 0-.024-.015l-.004-.002a.35.35 0 0 0-.027-.013H20.1a.348.348 0 0 0-.03-.011h-.003a.365.365 0 0 0-.03-.009h-.008l-.026-.005a.293.293 0 0 0-.035-.002H16.51a.352.352 0 0 0 0 .703h.178v.094a2.605 2.605 0 0 0 2.602 2.602h.323l-.01 9.636-2.08 2.079-.56-.876a7.155 7.155 0 0 0 2.184-5.144c0-3.942-3.206-7.148-7.148-7.148-3.942 0-7.148 3.206-7.148 7.148 0 3.942 3.206 7.148 7.148 7.148a7.155 7.155 0 0 0 3.172-.742l.614 1.352-1.268 1.269a.351.351 0 0 0-.103.248v2.116H8.96l-4.577-4.577V4.804h.326a2.604 2.604 0 0 0 2.602-2.6v-.095h7.7a.352.352 0 1 0 0-.703H4.032a.352.352 0 0 0-.351.352v15.701c0 .093.037.183.103.249l4.783 4.783a.352.352 0 0 0 .248.103h5.953a.352.352 0 0 0 .352-.352v-2.321l.978-.979.284.627-.382.383a.822.822 0 0 0-.24.584l.006 1.238c.002.45.37.816.82.816h2.83a.908.908 0 0 0 .647-.268.908.908 0 0 0 .267-.648l-.007-4.3zM19.29 4.102a1.9 1.9 0 0 1-1.899-1.899V2.11h2.225l-.002 1.993h-.324zM4.383 2.109h2.225v.094a1.9 1.9 0 0 1-1.899 1.899h-.326V2.109zm9.98 11.885l.193 1.35c.028.199.085.393.169.577l.156.345a6.45 6.45 0 0 1-2.881.68A6.453 6.453 0 0 1 5.555 10.5 6.453 6.453 0 0 1 12 4.055a6.453 6.453 0 0 1 6.445 6.445 6.452 6.452 0 0 1-1.87 4.539l-.06-.093a2.127 2.127 0 0 0-.392-.455l-1.028-.896a.441.441 0 0 0-.505-.055.442.442 0 0 0-.228.454zm1.002 1.636a1.421 1.421 0 0 1-.113-.387l-.095-.662.504.44c.102.088.19.19.263.305l2.692 4.2.059.093a.68.68 0 0 1-.279.918.684.684 0 0 1-.922-.266l-.044-.096-.302-.663-.001-.003-1.762-3.88zm4.2 6.195a.21.21 0 0 1-.15.062h-2.83a.118.118 0 0 1-.117-.117l-.006-1.239c0-.03.012-.06.034-.082l.196-.196.099.216.051.11a1.377 1.377 0 0 0 1.23.744c.228 0 .454-.056.66-.169.326-.177.563-.47.668-.825a1.377 1.377 0 0 0-.123-1.073l-.067-.107-.555-.866.924-.925c.005-.006.01-.011.025-.005.015.006.015.013.015.021l.007 4.302a.21.21 0 0 1-.062.149z"/>
    <path d="M12 7.336A3.168 3.168 0 0 0 8.836 10.5 3.168 3.168 0 0 0 12 13.664a3.168 3.168 0 0 0 3.164-3.164A3.168 3.168 0 0 0 12 7.336zm0 5.625A2.464 2.464 0 0 1 9.54 10.5 2.464 2.464 0 0 1 12 8.04a2.464 2.464 0 0 1 2.46 2.46A2.464 2.464 0 0 1 12 12.96z"/>
    <path d="M12 9.21c-.71 0-1.29.58-1.29 1.29 0 .71.58 1.29 1.29 1.29a1.29 1.29 0 0 0 0-2.578zm0 1.876a.587.587 0 1 1 .001-1.173.587.587 0 0 1-.001 1.173zM4.875 20.414a1.056 1.056 0 0 0 0 2.11 1.056 1.056 0 0 0 0-2.11zm0 1.406a.352.352 0 1 1 0-.704.352.352 0 0 1 0 .704zM18.105 20.3a.352.352 0 1 0 0-.704.352.352 0 0 0 0 .703z"/>
    </g>
    <defs>
        <clipPath id="a">
            <path fill="#fff" d="M0 0h32v32H0z"/>
        </clipPath>
    </defs>

</svg>