<svg width="32" height="32" viewBox="0 0 32 32" fill="none" xmlns="http://www.w3.org/2000/svg"><g clip-path="url(#a)" fill="#6c63ff"><path d="M14.653 2.586v12.983h17.24V0l-17.24 2.586zm16.162 11.906H15.73V3.502l15.084-2.21v13.2zM.108 15.73h13.468V2.693L.108 4.687V15.73zM1.185 5.602l11.313-1.67v10.721H1.185v-9.05zm13.468 23.813L31.893 32V16.809h-17.24v12.606zm1.078-11.529h15.084v12.876L15.73 28.498V17.886zM.108 27.314l13.468 1.993V16.809H.108v10.505zm1.077-9.428h11.313v10.182l-11.313-1.67v-8.512z"/></g><defs><clipPath id="a"><path fill="#fff" d="M0 0h32v32H0z"/></clipPath></defs></svg>