<svg width="32" height="32" viewBox="0 0 32 32" fill="none" xmlns="http://www.w3.org/2000/svg">
    <g clip-path="url(#a)" fill="#6c63ff">
        <path d="M31.96 7.532l-.003-.01-1.6-3.733a.533.533 0 0 0-.49-.324H2.13a.533.533 0 0 0-.49.323L.04 7.522v.01a.523.523 0 0 0-.037.177c0 .008-.004.014-.004.022v20.27c0 .294.239.533.533.533h30.934A.533.533 0 0 0 32 28V7.732c0-.008-.004-.014-.004-.023a.536.536 0 0 0-.036-.177zm-29.478-3h27.033l1.142 2.666H1.34l1.142-2.666zm28.451 22.935H1.064V8.265h29.87v19.202z"/>
        <path d="M23.089 16.642c.1.1.236.157.377.157h4.267a.533.533 0 0 0 .377-.157l1.6-1.6c.1-.1.156-.236.156-.377v-2.667a.533.533 0 0 0-.533-.533h-7.467a.533.533 0 0 0-.534.533v2.667c0 .142.057.277.157.377l1.6 1.6zm-.69-4.11h6.4v1.912l-1.287 1.288h-3.825l-1.288-1.288v-1.912z"/>
        <path d="M24.378 13.976a.625.625 0 0 0 .112-.176.533.533 0 1 0-.112.176zm1.019 1.18c.198.085.429.04.581-.112a.622.622 0 0 0 .112-.176.529.529 0 0 0-.286-.698.533.533 0 0 0-.738.495.526.526 0 0 0 .155.38.61.61 0 0 0 .176.111zm1.424-1.18a.54.54 0 0 0 .757 0 .624.624 0 0 0 .112-.176.532.532 0 0 0 .043-.202.56.56 0 0 0-.155-.38.543.543 0 0 0-.485-.143.339.339 0 0 0-.096.032.419.419 0 0 0-.096.048.868.868 0 0 0-.08.064.556.556 0 0 0-.155.379.44.44 0 0 0 .043.202.616.616 0 0 0 .112.176zm1.979 7.09h-6.4a.533.533 0 0 0-.534.534v3.2c0 .295.239.533.533.533h6.4a.533.533 0 0 0 .534-.533v-3.2a.533.533 0 0 0-.533-.534zm-5.867 1.067h2.133v2.134h-2.133v-2.134zm5.334 2.134h-2.134v-2.134h2.134v2.134zM2.664 26.4h2.134v-1.067h-1.6v-1.6H2.13v2.133c0 .294.239.533.533.533zm15.468-14.401H19.2V9.865a.533.533 0 0 0-.533-.533h-2.134v1.067h1.6v1.6zm-14.934-1.6h1.6V9.332H2.664a.533.533 0 0 0-.533.533V12h1.067v-1.6zm14.934 14.934h-1.6v1.066h2.134a.533.533 0 0 0 .533-.533v-2.134h-1.067v1.6zM10.665 9.865a8 8 0 1 0 8 8 8.01 8.01 0 0 0-8-8zm4.506 11.753a5.851 5.851 0 0 0 0-7.504l.753-.754a6.899 6.899 0 0 1 0 9.011l-.753-.753zm-1.84-3.752c0 .522-.154 1.033-.444 1.468l-.782-.783a1.542 1.542 0 0 0 0-1.37l.783-.784c.29.436.444.947.444 1.469zm-5.333 0c0-.523.155-1.034.444-1.468l.783.782a1.544 1.544 0 0 0 0 1.371l-.783.783a2.65 2.65 0 0 1-.444-1.468zm2.134 0a.533.533 0 1 1 1.066 0 .533.533 0 0 1-1.066 0zm1.218-1.44a1.543 1.543 0 0 0-1.37 0l-.784-.783a2.648 2.648 0 0 1 2.937 0l-.783.783zm-1.37 2.88c.431.214.938.214 1.37 0l.783.783a2.65 2.65 0 0 1-2.936 0l.782-.783zm2.916-4.427a3.704 3.704 0 0 0-4.463 0l-.761-.761a4.778 4.778 0 0 1 5.986 0l-.761.76zm-5.218.755a3.704 3.704 0 0 0 0 4.464l-.761.76a4.778 4.778 0 0 1 0-5.985l.76.761zm.755 5.219a3.704 3.704 0 0 0 4.463 0l.761.76a4.778 4.778 0 0 1-5.985 0l.761-.76zm5.219-.755a3.704 3.704 0 0 0 0-4.464l.76-.76a4.778 4.778 0 0 1 0 5.985l-.76-.761zm1.52-7.492l-.755.754a5.851 5.851 0 0 0-7.503 0l-.754-.754a6.9 6.9 0 0 1 9.011 0zm-9.767.754l.754.754a5.852 5.852 0 0 0 0 7.504l-.754.753a6.9 6.9 0 0 1 0-9.01zm.754 9.765l.754-.753a5.85 5.85 0 0 0 7.503 0l.754.753a6.9 6.9 0 0 1-9.01 0z"/>
    </g>
    <defs>
        <clipPath id="a">
            <path fill="#fff" d="M0 0h32v32H0z"/>
        </clipPath>
    </defs>
</svg>